<svg xmlns="http://www.w3.org/2000/svg" viewBox="0 0 384.44 80.2"><defs><style>.cls-1{fill:#39b54a;}.cls-2{fill:#fff;}</style></defs><g id="Layer_2" data-name="Layer 2"><g id="Layer_1-2" data-name="Layer 1"><path class="cls-1" d="M21.84,66.76l-9-30.13h-.22c.07.75.14,1.8.19,3.17s.12,2.84.2,4.45.11,3.1.11,4.48v18H4.7v-40H17.58l8.91,29.56h.22l9.13-29.56H48.72v40H39.87V48.45q0-1.85.09-4.17c0-1.55.11-3,.16-4.43s.11-2.45.14-3.16H40L30.8,66.76Z" transform="translate(-4.7)"/><path class="cls-1" d="M50.29,36H60.42L66,53.49a8.28,8.28,0,0,1,.39,1.29c.11.48.2,1,.28,1.48a11.6,11.6,0,0,1,.11,1.6H67a16.12,16.12,0,0,1,.36-2.38c.17-.73.34-1.39.53-2L73.42,36h9.85L70.67,69.78a21,21,0,0,1-3.16,5.77A11.71,11.71,0,0,1,63,79.05,14.89,14.89,0,0,1,57,80.2a19.52,19.52,0,0,1-2.49-.14c-.69-.09-1.3-.2-1.82-.31V72.3c.41.08.9.15,1.48.23a15.21,15.21,0,0,0,1.82.11A5.47,5.47,0,0,0,60.87,70a13.66,13.66,0,0,0,1.29-2.63l.34-1Z" transform="translate(-4.7)"/><path class="cls-1" d="M106.34,57.47a9.51,9.51,0,0,1-1.4,5.23,9,9,0,0,1-4.28,3.42,19.32,19.32,0,0,1-7.36,1.2,36.48,36.48,0,0,1-5.69-.39,22.33,22.33,0,0,1-4.9-1.4V57.91a33.19,33.19,0,0,0,5.6,1.88,21.55,21.55,0,0,0,4.93.7,6.12,6.12,0,0,0,3.08-.59,1.8,1.8,0,0,0,1-1.6A2.06,2.06,0,0,0,96.8,57a5.76,5.76,0,0,0-1.88-1.26c-.93-.45-2.35-1.08-4.26-1.91a24.92,24.92,0,0,1-4.53-2.32,7.31,7.31,0,0,1-2.63-3,9.87,9.87,0,0,1-.84-4.28A7.33,7.33,0,0,1,86,37.67a16.2,16.2,0,0,1,9-2.21,25.12,25.12,0,0,1,5.6.59,26.75,26.75,0,0,1,5.43,1.87l-2.68,6.44A35.34,35.34,0,0,0,99,42.71,13.93,13.93,0,0,0,95,42.07a5.16,5.16,0,0,0-2.43.44,1.36,1.36,0,0,0-.82,1.23A1.74,1.74,0,0,0,92.26,45a6.24,6.24,0,0,0,1.85,1.12c.91.41,2.25,1,4,1.73a27.84,27.84,0,0,1,4.48,2.24,8,8,0,0,1,2.8,2.92A9.19,9.19,0,0,1,106.34,57.47Z" transform="translate(-4.7)"/><path class="cls-1" d="M123.54,59.87a11.59,11.59,0,0,0,2.63-.3c.86-.21,1.71-.46,2.57-.76v6.94a18.59,18.59,0,0,1-3.53,1.12,21.12,21.12,0,0,1-4.59.45,13.29,13.29,0,0,1-5.12-.92,7.15,7.15,0,0,1-3.5-3.17,12.78,12.78,0,0,1-1.29-6.33V43.07H106.9V39.15l4.6-3,2.63-6.5h6V36h8.18v7h-8.18v13.5a3.2,3.2,0,0,0,.9,2.46A3.47,3.47,0,0,0,123.54,59.87Z" transform="translate(-4.7)"/><path class="cls-1" d="M136.19,23.81a7.1,7.1,0,0,1,3.61.89c1,.6,1.54,1.76,1.54,3.48s-.51,2.83-1.54,3.44a6.83,6.83,0,0,1-3.61.93,6.43,6.43,0,0,1-3.53-.93c-1-.61-1.45-1.76-1.45-3.44s.48-2.88,1.45-3.48A6.68,6.68,0,0,1,136.19,23.81ZM140.9,36V66.76h-9.41V36Z" transform="translate(-4.7)"/><path class="cls-1" d="M159.15,67.32a17.39,17.39,0,0,1-7.92-1.68,11.37,11.37,0,0,1-5.1-5.18,19.75,19.75,0,0,1-1.76-8.93,18.32,18.32,0,0,1,2-9.13,12.73,12.73,0,0,1,5.52-5.24,18.21,18.21,0,0,1,8-1.7,23,23,0,0,1,5.46.59,18.37,18.37,0,0,1,4.33,1.59L167,44.81a33.33,33.33,0,0,0-3.64-1.34,11.69,11.69,0,0,0-3.41-.51,5.63,5.63,0,0,0-3.25.92,5.7,5.7,0,0,0-2.05,2.83,14.11,14.11,0,0,0-.7,4.76,13.08,13.08,0,0,0,.73,4.71,5.56,5.56,0,0,0,2.07,2.71,5.86,5.86,0,0,0,3.25.87,14.25,14.25,0,0,0,4.62-.73,19.19,19.19,0,0,0,4.12-2v7.79a16.65,16.65,0,0,1-4.15,1.82A19.82,19.82,0,0,1,159.15,67.32Z" transform="translate(-4.7)"/><path class="cls-2" d="M172.93,66.76v-40h9.52V59h15.84v7.78Z" transform="translate(-4.7)"/><path class="cls-2" d="M229.88,51.3a20.21,20.21,0,0,1-1.07,6.84,14.13,14.13,0,0,1-3,5,12.33,12.33,0,0,1-4.76,3.1,18,18,0,0,1-6.33,1,16.88,16.88,0,0,1-6-1,12.64,12.64,0,0,1-4.76-3.1,14.75,14.75,0,0,1-3.11-5,19.46,19.46,0,0,1-1.12-6.84,18.5,18.5,0,0,1,1.82-8.59,12.71,12.71,0,0,1,5.24-5.38,16.63,16.63,0,0,1,8.12-1.87,15.89,15.89,0,0,1,7.78,1.84,13.38,13.38,0,0,1,5.3,5.35A17.82,17.82,0,0,1,229.88,51.3Zm-20.61,0a17.94,17.94,0,0,0,.56,4.79,5.65,5.65,0,0,0,1.76,3,5,5,0,0,0,3.22,1,4.9,4.9,0,0,0,3.17-1,5.65,5.65,0,0,0,1.76-3,17.94,17.94,0,0,0,.56-4.79,17.37,17.37,0,0,0-.56-4.73A5.36,5.36,0,0,0,218,43.69a5,5,0,0,0-3.19-.95,4.53,4.53,0,0,0-4.2,2.15A12.73,12.73,0,0,0,209.27,51.3Z" transform="translate(-4.7)"/><path class="cls-2" d="M243.26,35.46a10.52,10.52,0,0,1,5.18,1.17,10.25,10.25,0,0,1,3.5,3.25h.23l.72-3.86H261v30.8a14.28,14.28,0,0,1-1.74,7.33A11,11,0,0,1,254,78.66a22.12,22.12,0,0,1-8.85,1.54,45.59,45.59,0,0,1-6.27-.39,24.63,24.63,0,0,1-5.43-1.4V70.74A34.1,34.1,0,0,0,239,72.47a28.75,28.75,0,0,0,6.16.62A6.94,6.94,0,0,0,250,71.61a5.71,5.71,0,0,0,1.6-4.4v-.56c0-.6,0-1.22.08-1.88s.12-1.31.2-2h-.28a9.38,9.38,0,0,1-3.44,3.36,10.07,10.07,0,0,1-5,1.18,9.74,9.74,0,0,1-8.26-4.14q-3-4.16-3.05-11.76t3.14-11.82A9.94,9.94,0,0,1,243.26,35.46Zm3.31,7.44a4.44,4.44,0,0,0-2.92,1,5.79,5.79,0,0,0-1.73,2.92,17.2,17.2,0,0,0-.56,4.79q0,4.3,1.29,6.35a4.42,4.42,0,0,0,4,2.05,7,7,0,0,0,2.55-.42,3.76,3.76,0,0,0,1.68-1.35,7.08,7.08,0,0,0,1-2.32,15.23,15.23,0,0,0,.33-3.42V51.36a16.9,16.9,0,0,0-.56-4.76,4.71,4.71,0,0,0-5.09-3.7Z" transform="translate(-4.7)"/><path class="cls-2" d="M275.91,35.46a10.52,10.52,0,0,1,5.18,1.17,10.34,10.34,0,0,1,3.5,3.25h.22l.73-3.86h8.06v30.8a14.38,14.38,0,0,1-1.73,7.33,11,11,0,0,1-5.27,4.51,22.1,22.1,0,0,1-8.84,1.54,45.85,45.85,0,0,1-6.28-.39,24.92,24.92,0,0,1-5.43-1.4V70.74a34.51,34.51,0,0,0,5.55,1.73,28.68,28.68,0,0,0,6.16.62,6.94,6.94,0,0,0,4.84-1.48,5.74,5.74,0,0,0,1.6-4.4v-.56c0-.6,0-1.22.08-1.88s.12-1.31.2-2h-.28a9.4,9.4,0,0,1-3.45,3.36,10,10,0,0,1-5,1.18,9.74,9.74,0,0,1-8.26-4.14q-3.06-4.16-3.05-11.76t3.13-11.82A10,10,0,0,1,275.91,35.46Zm3.3,7.44a4.41,4.41,0,0,0-2.91,1,5.88,5.88,0,0,0-1.74,2.92,17.58,17.58,0,0,0-.56,4.79q0,4.3,1.29,6.35a4.43,4.43,0,0,0,4,2.05,7,7,0,0,0,2.55-.42,3.76,3.76,0,0,0,1.68-1.35,6.68,6.68,0,0,0,1-2.32,14.62,14.62,0,0,0,.34-3.42V51.36a16.9,16.9,0,0,0-.56-4.76,5.26,5.26,0,0,0-1.77-2.77A5.32,5.32,0,0,0,279.21,42.9Z" transform="translate(-4.7)"/><path class="cls-2" d="M311.92,35.46a16.41,16.41,0,0,1,7.5,1.59,11.4,11.4,0,0,1,4.87,4.71,15.58,15.58,0,0,1,1.74,7.7v4.36H306.6a6.82,6.82,0,0,0,2,4.85,7.18,7.18,0,0,0,5.26,1.82,23,23,0,0,0,5.35-.59,25.64,25.64,0,0,0,5-1.82v7a18.53,18.53,0,0,1-4.82,1.71,32.52,32.52,0,0,1-6.38.53,19.2,19.2,0,0,1-8.2-1.68,12.55,12.55,0,0,1-5.66-5.18,17.41,17.41,0,0,1-2-8.87A19.51,19.51,0,0,1,299,42.51a12.18,12.18,0,0,1,5.21-5.32A16.65,16.65,0,0,1,311.92,35.46Zm.16,6.55a5,5,0,0,0-3.58,1.37,6.65,6.65,0,0,0-1.74,4.34h10.59a7,7,0,0,0-.59-2.91A4.77,4.77,0,0,0,315,42.76,5.26,5.26,0,0,0,312.08,42Z" transform="translate(-4.7)"/><path class="cls-2" d="M347.25,35.46c.49,0,1,0,1.62.08a11.28,11.28,0,0,1,1.4.2l-.78,8.85c-.34-.08-.76-.15-1.29-.23a13,13,0,0,0-1.73-.11,10.38,10.38,0,0,0-2.66.34,7.9,7.9,0,0,0-2.47,1.09,5.27,5.27,0,0,0-1.82,2.12,8,8,0,0,0-.67,3.5V66.76h-9.46V36h7.11l1.45,5h.4a11.7,11.7,0,0,1,2.24-2.83,10.87,10.87,0,0,1,3.05-2A8.88,8.88,0,0,1,347.25,35.46Z" transform="translate(-4.7)"/><path class="cls-2" d="M383.89,20.62c1.12-3.12,4.35-12.15,4.35-15C388.24,3,386.73.9,384.05.9c-4.27,0-8.1,12.61-9.29,15.62C373.83,13.79,369.48,0,365.65,0c-3,0-4.37,2.19-4.37,5,0,3.38,3.27,12.14,4.46,15.51a5.74,5.74,0,0,0-1.92-.41c-2.24,0-4.62,2.79-4.62,5a9.8,9.8,0,0,0,.76,2.84c-3.53,1-4.89,3.31-4.89,6.87,0,6.91,6.54,14.22,15.75,14.22,11.3,0,18.33-8.48,18.33-19.42,0-4.13-.66-7.86-5.26-9ZM380.5,10.34c.38-1.18,2-6.16,3.55-6.16.83,0,1.05.86,1.05,1.54,0,1.82-3.7,11.93-4.51,14.17l-3.26-.58ZM364.28,4.62c0-1.13,1.39-4.37,4.43,4.51L372,18.74c-1.5-.13-2.65-.29-3.39.13-1.05-2.76-4.36-11.46-4.36-14.25Zm-.22,18.74c2.81,0,6.43,9.06,6.43,10.29a1.15,1.15,0,0,1-1,1.09c-2,0-7.36-7.37-7.36-9.36a2.74,2.74,0,0,1,1.95-2ZM381.71,41.2a13.76,13.76,0,0,1-10.51,4.65,12.88,12.88,0,0,1-12.34-8.45c-1.64-4.16.37-6.54,2-6.54,1.1,0,5.2,5.77,5.2,7,0,.47-.73.79-1.12.79-1.54,0-2.14-1.48-4.89-4.92-2.84,2.85,2,8.32,5.58,8.32,2.5,0,4.13-2.31,3.64-4a4.57,4.57,0,0,0,1.12-.06c.11,2.6.87,5.69,4,5.91,0-.08.2-.68.2-.71,0-1.66-1-3.12-1-4.81,0-2.71,2.08-5.34,4.19-6.87a9.69,9.69,0,0,1,2.59-1.25,7.39,7.39,0,0,0,2.62-1.48c-.1-1.07-.54-2-1.61-2-2.66,0-11.55.39-11.55-3.8,0-.64,0-1.25,1.66-1.25,3.1,0,10.95.76,13.25,2.78,1.73,1.54,2.32,10.84-3,16.73Zm-9.44-12.06a26.93,26.93,0,0,0,2.84.57,12.39,12.39,0,0,0-1.94,1.83C372.9,30.73,372.57,29.93,372.27,29.14Z" transform="translate(-4.7)"/></g></g></svg>